<svg width="11" height="11" viewBox="0 0 11 11" fill="none" xmlns="http://www.w3.org/2000/svg">
<g clip-path="url(#clip0_121_438)">
<path d="M5.376 6.72C6.11827 6.72 6.72 6.11827 6.72 5.376C6.72 4.63373 6.11827 4.032 5.376 4.032C4.63373 4.032 4.032 4.63373 4.032 5.376C4.032 6.11827 4.63373 6.72 5.376 6.72Z" stroke="#1E1E1E" stroke-width="0.896" stroke-linecap="round" stroke-linejoin="round"/>
<path d="M8.6912 6.72C8.63156 6.85512 8.61377 7.00501 8.64012 7.15034C8.66647 7.29567 8.73576 7.42977 8.83904 7.53536L8.86592 7.56224C8.94923 7.64545 9.01531 7.74427 9.0604 7.85304C9.10549 7.96182 9.1287 8.07841 9.1287 8.19616C9.1287 8.31391 9.10549 8.4305 9.0604 8.53927C9.01531 8.64804 8.94923 8.74686 8.86592 8.83008C8.7827 8.91338 8.68388 8.97947 8.57511 9.02456C8.46634 9.06965 8.34975 9.09286 8.232 9.09286C8.11425 9.09286 7.99766 9.06965 7.88888 9.02456C7.78011 8.97947 7.68129 8.91338 7.59808 8.83008L7.5712 8.8032C7.46561 8.69992 7.33151 8.63063 7.18618 8.60428C7.04085 8.57793 6.89096 8.59572 6.75584 8.65536C6.62333 8.71215 6.51033 8.80644 6.43073 8.92664C6.35113 9.04683 6.30841 9.18768 6.30784 9.33184V9.408C6.30784 9.64563 6.21344 9.87353 6.04541 10.0416C5.87737 10.2096 5.64947 10.304 5.41184 10.304C5.1742 10.304 4.9463 10.2096 4.77827 10.0416C4.61024 9.87353 4.51584 9.64563 4.51584 9.408V9.36768C4.51237 9.21939 4.46437 9.07558 4.37808 8.95494C4.29179 8.83429 4.17121 8.7424 4.032 8.6912C3.89687 8.63156 3.74698 8.61377 3.60165 8.64012C3.45633 8.66647 3.32222 8.73576 3.21664 8.83904L3.18976 8.86592C3.10654 8.94923 3.00773 9.01531 2.89895 9.0604C2.79018 9.10549 2.67359 9.1287 2.55584 9.1287C2.43809 9.1287 2.3215 9.10549 2.21272 9.0604C2.10395 9.01531 2.00513 8.94923 1.92192 8.86592C1.83861 8.7827 1.77252 8.68388 1.72743 8.57511C1.68234 8.46634 1.65913 8.34975 1.65913 8.232C1.65913 8.11425 1.68234 7.99766 1.72743 7.88888C1.77252 7.78011 1.83861 7.68129 1.92192 7.59808L1.9488 7.5712C2.05208 7.46561 2.12136 7.33151 2.14771 7.18618C2.17406 7.04085 2.15627 6.89096 2.09664 6.75584C2.03985 6.62333 1.94555 6.51033 1.82536 6.43073C1.70516 6.35113 1.56432 6.30841 1.42016 6.30784H1.344C1.10636 6.30784 0.878463 6.21344 0.71043 6.04541C0.542398 5.87737 0.447998 5.64947 0.447998 5.41184C0.447998 5.1742 0.542398 4.9463 0.71043 4.77827C0.878463 4.61024 1.10636 4.51584 1.344 4.51584H1.38432C1.5326 4.51237 1.67642 4.46437 1.79706 4.37808C1.9177 4.29179 2.0096 4.17121 2.0608 4.032C2.12043 3.89687 2.13822 3.74698 2.11187 3.60165C2.08552 3.45633 2.01624 3.32222 1.91296 3.21664L1.88608 3.18976C1.80277 3.10654 1.73668 3.00773 1.69159 2.89895C1.6465 2.79018 1.62329 2.67359 1.62329 2.55584C1.62329 2.43809 1.6465 2.3215 1.69159 2.21272C1.73668 2.10395 1.80277 2.00513 1.88608 1.92192C1.96929 1.83861 2.06811 1.77252 2.17688 1.72743C2.28566 1.68234 2.40225 1.65913 2.52 1.65913C2.63775 1.65913 2.75434 1.68234 2.86311 1.72743C2.97189 1.77252 3.0707 1.83861 3.15392 1.92192L3.1808 1.9488C3.28638 2.05208 3.42049 2.12136 3.56581 2.14771C3.71114 2.17406 3.86103 2.15627 3.99616 2.09664H4.032C4.1645 2.03985 4.27751 1.94555 4.35711 1.82536C4.43671 1.70516 4.47942 1.56432 4.48 1.42016V1.344C4.48 1.10636 4.5744 0.878463 4.74243 0.71043C4.91046 0.542398 5.13836 0.447998 5.376 0.447998C5.61363 0.447998 5.84153 0.542398 6.00957 0.71043C6.1776 0.878463 6.272 1.10636 6.272 1.344V1.38432C6.27257 1.52848 6.31529 1.66932 6.39489 1.78952C6.47449 1.90971 6.58749 2.00401 6.72 2.0608C6.85512 2.12043 7.00501 2.13822 7.15034 2.11187C7.29567 2.08552 7.42977 2.01624 7.53536 1.91296L7.56224 1.88608C7.64545 1.80277 7.74427 1.73668 7.85304 1.69159C7.96182 1.6465 8.07841 1.62329 8.19616 1.62329C8.31391 1.62329 8.4305 1.6465 8.53927 1.69159C8.64804 1.73668 8.74686 1.80277 8.83008 1.88608C8.91338 1.96929 8.97947 2.06811 9.02456 2.17688C9.06965 2.28566 9.09286 2.40225 9.09286 2.52C9.09286 2.63775 9.06965 2.75434 9.02456 2.86311C8.97947 2.97189 8.91338 3.0707 8.83008 3.15392L8.8032 3.1808C8.69992 3.28638 8.63063 3.42049 8.60428 3.56581C8.57793 3.71114 8.59572 3.86103 8.65536 3.99616V4.032C8.71215 4.1645 8.80644 4.27751 8.92664 4.35711C9.04683 4.43671 9.18768 4.47942 9.33184 4.48H9.408C9.64563 4.48 9.87353 4.5744 10.0416 4.74243C10.2096 4.91046 10.304 5.13836 10.304 5.376C10.304 5.61363 10.2096 5.84153 10.0416 6.00957C9.87353 6.1776 9.64563 6.272 9.408 6.272H9.36768C9.22352 6.27257 9.08267 6.31529 8.96248 6.39489C8.84228 6.47449 8.74799 6.58749 8.6912 6.72Z" stroke="#1E1E1E" stroke-width="0.896" stroke-linecap="round" stroke-linejoin="round"/>
</g>
<defs>
<clipPath id="clip0_121_438">
<rect width="10.752" height="10.752" fill="white"/>
</clipPath>
</defs>
</svg>
